<svg width="512" height="512" viewBox="0 0 512 512" fill="none" xmlns="http://www.w3.org/2000/svg">
<g id="notes ">
<g id="Group 1">
<path id="Vector" d="M392 76V121L362 151H30L0 121V76C0 51.099 20.099 30 45 30H347C371.901 30 392 51.099 392 76Z" fill="#4D5A68"/>
<path id="Vector_2" d="M392 76V121L362 151H196V30H347C371.901 30 392 51.099 392 76Z" fill="#304653"/>
<path id="Vector_3" d="M392 121V466C392 490.899 371.901 512 347 512H45C20.099 512 0 490.899 0 466V121H392Z" fill="#FFCA42"/>
<path id="Vector_4" d="M392 121V466C392 490.899 371.901 512 347 512H196V121H392Z" fill="#FFAF3E"/>
<path id="Vector_5" d="M75 91C66.709 91 60 84.291 60 76V15C60 6.709 66.709 0 75 0C83.291 0 90 6.709 90 15V76C90 84.291 83.291 91 75 91Z" fill="#CAD4E4"/>
<path id="Vector_6" d="M136 91C127.709 91 121 84.291 121 76V15C121 6.709 127.709 0 136 0C144.291 0 151 6.709 151 15V76C151 84.291 144.291 91 136 91Z" fill="#CAD4E4"/>
<path id="Vector_7" d="M211 15V76C211 84.399 204.401 91 196 91C187.599 91 181 84.399 181 76V15C181 6.599 187.599 0 196 0C204.401 0 211 6.599 211 15Z" fill="#CAD4E4"/>
<path id="Vector_8" d="M257 91C248.709 91 242 84.291 242 76V15C242 6.709 248.709 0 257 0C265.291 0 272 6.709 272 15V76C272 84.291 265.291 91 257 91Z" fill="#ADB5CC"/>
<path id="Vector_9" d="M317 91C308.709 91 302 84.291 302 76V15C302 6.709 308.709 0 317 0C325.291 0 332 6.709 332 15V76C332 84.291 325.291 91 317 91Z" fill="#ADB5CC"/>
<path id="Vector_10" d="M211 406C211 414.399 204.401 421 196 421H75C66.599 421 60 414.399 60 406C60 397.599 66.599 391 75 391H196C204.401 391 211 397.599 211 406Z" fill="#DD864D"/>
<path id="Vector_11" d="M166 331H75C66.709 331 60 324.291 60 316C60 307.709 66.709 301 75 301H166C174.291 301 181 307.709 181 316C181 324.291 174.291 331 166 331Z" fill="#DD864D"/>
<path id="Vector_12" d="M136 241H75C66.709 241 60 234.291 60 226C60 217.709 66.709 211 75 211H136C144.291 211 151 217.709 151 226C151 234.291 144.291 241 136 241Z" fill="#DD864D"/>
</g>
<g id="pen">
<path id="Vector_13" d="M444.542 145.871L429.473 137.171L489.473 33.248C511.037 45.698 518.394 73.155 505.944 94.719L483.444 133.69L444.542 145.871Z" fill="#304653"/>
<path id="Vector_14" d="M409.935 324.164C415.002 239.546 473.98 191.227 477.428 186.374C484.204 179.377 482.58 167.833 474.135 162.957L455.449 152.168C448.269 148.022 445.813 138.858 449.959 131.678C454.105 124.498 463.269 122.042 470.449 126.188L489.135 136.977C514.476 151.607 519.349 186.162 498.982 207.225C494.129 213.995 444.342 251.285 439.884 325.962C439.387 334.234 432.282 340.534 424.01 340.038C415.668 339.514 409.452 332.377 409.935 324.164Z" fill="#304653"/>
<path id="Vector_15" d="M505.944 94.719L483.444 133.69L444.542 145.871L414.403 128.47L405.501 88.689L428.001 49.718C440.451 28.154 467.908 20.797 489.472 33.247C511.036 45.697 518.394 73.155 505.944 94.719Z" fill="#4D5A68"/>
<path id="Vector_16" d="M342.543 380.737L262.003 334.237C266.255 290.274 282.178 248.891 309.535 214.109C314.174 208.474 394.821 105.386 398.602 100.64L405.501 88.6899L483.443 133.69L476.693 145.382C476.243 146.161 424.69 275.053 422.81 279.509C406.367 320.592 378.49 355.074 342.543 380.737Z" fill="#E9336D"/>
<path id="Vector_17" d="M342.543 380.737L302.273 357.487L444.473 111.19L483.444 133.69L476.694 145.382C476.244 146.161 424.691 275.053 422.811 279.509C406.367 320.592 378.49 355.074 342.543 380.737Z" fill="#B12E65"/>
<path id="Vector_18" d="M318.773 328.909C302.665 319.609 283.277 320.192 267.601 330.541L262.003 334.238C261.841 336.916 261.161 339.296 261.001 341.973L257.183 405.588L243.983 428.451C239.784 435.725 242.198 444.741 249.473 448.941C256.748 453.141 265.764 450.724 269.963 443.451L283.163 420.588L336.345 385.474C338.583 383.996 340.303 382.218 342.542 380.739L342.945 374.043C344.07 355.292 334.881 338.209 318.773 328.909Z" fill="#CAD4E4"/>
<path id="Vector_19" d="M318.773 328.909L279.473 396.978L249.473 448.94C256.748 453.14 265.764 450.723 269.963 443.45L283.163 420.587L336.345 385.473C338.583 383.995 340.303 382.217 342.542 380.738L342.945 374.042C344.07 355.292 334.881 338.209 318.773 328.909Z" fill="#ADB5CC"/>
</g>
<g id="Group 2">
<path id="Vector_20" d="M196 91V0C204.401 0 211 6.599 211 15V76C211 84.399 204.401 91 196 91Z" fill="#ADB5CC"/>
<path id="Vector_21" d="M211 406C211 414.399 204.401 421 196 421V391C204.401 391 211 397.599 211 406Z" fill="#D36836"/>
</g>
</g>
</svg>
